<svg width="246" height="36" viewBox="0 0 246 36" fill="none" xmlns="http://www.w3.org/2000/svg">
<path d="M226.973 0C227.261 0 227.536 0.117275 227.739 0.326026C227.942 0.534777 228.056 0.817904 228.056 1.11312V5.56561C228.056 5.86083 227.942 6.14396 227.739 6.35271C227.536 6.56146 227.261 6.67873 226.973 6.67873C226.686 6.67873 226.411 6.56146 226.208 6.35271C226.004 6.14396 225.89 5.86083 225.89 5.56561V1.11312C225.89 0.817904 226.004 0.534777 226.208 0.326026C226.411 0.117275 226.686 0 226.973 0V0ZM218.547 3.58425C218.648 3.48059 218.768 3.39835 218.899 3.34223C219.031 3.28612 219.172 3.25723 219.314 3.25723C219.457 3.25723 219.598 3.28612 219.729 3.34223C219.861 3.39835 219.98 3.48059 220.081 3.58425L223.144 6.73439C223.247 6.83707 223.33 6.9599 223.387 7.0957C223.443 7.23151 223.473 7.37757 223.474 7.52537C223.476 7.67317 223.448 7.81975 223.394 7.95655C223.339 8.09335 223.259 8.21763 223.157 8.32214C223.056 8.42666 222.935 8.50931 222.802 8.56528C222.668 8.62125 222.526 8.64941 222.382 8.64813C222.238 8.64684 222.096 8.61614 221.964 8.5578C221.832 8.49946 221.712 8.41466 221.612 8.30834L218.55 5.16043C218.347 4.95169 218.232 4.66862 218.232 4.37346C218.232 4.0783 218.347 3.79522 218.55 3.58648L218.547 3.58425ZM235.399 3.58425C235.5 3.68765 235.58 3.81049 235.635 3.94572C235.689 4.08095 235.718 4.22593 235.718 4.37234C235.718 4.51876 235.689 4.66373 235.635 4.79897C235.58 4.9342 235.5 5.05704 235.399 5.16043L232.332 8.30834C232.232 8.41466 232.113 8.49946 231.981 8.5578C231.849 8.61614 231.706 8.64684 231.563 8.64813C231.419 8.64941 231.276 8.62125 231.143 8.56528C231.01 8.50931 230.889 8.42666 230.787 8.32214C230.686 8.21763 230.605 8.09335 230.551 7.95655C230.496 7.81975 230.469 7.67317 230.47 7.52537C230.471 7.37757 230.501 7.23151 230.558 7.0957C230.615 6.9599 230.697 6.83707 230.801 6.73439L233.864 3.58648C234.067 3.3778 234.342 3.26057 234.629 3.26057C234.917 3.26057 235.192 3.3778 235.395 3.58648L235.399 3.58425ZM215.06 12.2443C215.06 11.9491 215.174 11.666 215.377 11.4572C215.58 11.2485 215.856 11.1312 216.143 11.1312H220.475C220.762 11.1312 221.038 11.2485 221.241 11.4572C221.444 11.666 221.558 11.9491 221.558 12.2443C221.558 12.5396 221.444 12.8227 221.241 13.0314C221.038 13.2402 220.762 13.3575 220.475 13.3575H216.143C215.856 13.3575 215.58 13.2402 215.377 13.0314C215.174 12.8227 215.06 12.5396 215.06 12.2443ZM229.443 11.7991C229.127 11.5285 228.742 11.356 228.334 11.3018C227.926 11.2476 227.511 11.314 227.139 11.4931C226.766 11.6722 226.451 11.9567 226.23 12.3133C226.009 12.6699 225.891 13.0838 225.89 13.5066V33.7677C225.89 35.8247 228.371 36.782 229.687 35.2348L234.076 30.0788C234.381 29.7211 234.757 29.4345 235.179 29.2383C235.601 29.0421 236.058 28.9408 236.521 28.9412H243.477C245.502 28.9412 246.42 26.3365 244.863 25.0052L229.443 11.7969V11.7991ZM228.056 33.7721V13.5066L243.477 26.7149H236.521C235.749 26.7148 234.986 26.8844 234.283 27.2123C233.58 27.5402 232.953 28.0189 232.445 28.6161L228.056 33.7699V33.7721Z" fill="#F7B801"/>
<path d="M0 22.7892V23.2751C0 24.8946 0.202598 26.4679 0.607793 27.9949C1.01299 29.5219 1.60577 30.8715 2.38615 32.0437C3.19654 33.2314 4.20203 34.1877 5.4026 34.9126C6.61819 35.6375 8.02887 36 9.63464 36C11.1204 36 12.5085 35.6915 13.7992 35.0746C15.0898 34.4422 16.1553 33.5321 16.9957 32.3445L17.0857 35.5373H19.5844V0H16.9056V13.9049C16.1103 12.7018 15.0898 11.7609 13.8442 11.0823C12.5986 10.3882 11.2104 10.0411 9.67967 10.0411C8.01386 10.0411 6.57317 10.4036 5.35758 11.1285C4.142 11.8535 3.13651 12.8175 2.34113 14.0206C1.57576 15.1774 0.990477 16.5193 0.585282 18.0463C0.195094 19.5578 0 21.1388 0 22.7892ZM2.7013 23.2751V22.7892C2.7013 21.5553 2.82886 20.329 3.08399 19.1105C3.35412 17.892 3.77432 16.7892 4.34459 15.8021C4.92988 14.8149 5.69524 14.0129 6.6407 13.3959C7.60116 12.7789 8.77923 12.4704 10.1749 12.4704C11.7507 12.4704 13.1238 12.91 14.2944 13.7892C15.48 14.653 16.3504 15.7943 16.9056 17.2134V29.2211C16.3204 30.5784 15.4199 31.6427 14.2043 32.4139C12.9888 33.1851 11.6306 33.5707 10.1299 33.5707C8.74922 33.5707 7.58616 33.2622 6.6407 32.6452C5.71025 32.0283 4.94488 31.2339 4.34459 30.2622C3.77432 29.2751 3.35412 28.1799 3.08399 26.9769C2.82886 25.7584 2.7013 24.5244 2.7013 23.2751Z" fill="#D2CACA"/>
<path d="M38.8762 36C40.9022 36 42.6806 35.5913 44.2113 34.7738C45.742 33.9563 46.9651 32.8843 47.8806 31.5578L46.1923 30.2391C45.3218 31.3496 44.2788 32.1979 43.0633 32.7841C41.8477 33.3702 40.4895 33.6555 38.9888 33.6401C37.6832 33.6401 36.4901 33.3779 35.4096 32.8535C34.3441 32.3136 33.4361 31.5964 32.6858 30.7018C31.9204 29.8226 31.3276 28.8123 30.9074 27.671C30.4872 26.5296 30.2471 25.2956 30.187 23.9692V23.2057H48.4208V21.5167C48.4058 19.928 48.1807 18.4396 47.7455 17.0514C47.3103 15.6478 46.665 14.4216 45.8096 13.3728C44.9542 12.3393 43.9037 11.5296 42.6581 10.9434C41.4125 10.3419 39.9868 10.0411 38.381 10.0411C36.8503 10.0411 35.4246 10.3728 34.1039 11.036C32.7833 11.6838 31.6428 12.5707 30.6823 13.6967C29.6918 14.838 28.9114 16.1877 28.3412 17.7455C27.7859 19.2879 27.5083 20.946 27.5083 22.7198V23.7147C27.5083 25.3959 27.7859 26.9846 28.3412 28.4807C28.8964 29.9614 29.6768 31.2648 30.6823 32.3907C31.6728 33.5013 32.8658 34.3805 34.2615 35.0283C35.6572 35.6761 37.1954 36 38.8762 36ZM38.381 12.4242C39.5366 12.4242 40.5646 12.6555 41.465 13.1183C42.3654 13.5656 43.1308 14.1671 43.7611 14.9229C44.3764 15.6787 44.8566 16.5578 45.2018 17.5604C45.562 18.563 45.742 19.5733 45.742 20.5913V20.8458H30.2996C30.4647 19.6427 30.7723 18.5244 31.2225 17.491C31.6728 16.4576 32.243 15.563 32.9334 14.8072C33.6237 14.0668 34.4266 13.4884 35.342 13.072C36.2575 12.6401 37.2705 12.4242 38.381 12.4242Z" fill="#D2CACA"/>
<path d="M66.0468 33.6401C64.6211 33.6401 63.4056 33.347 62.4001 32.7609C61.4096 32.1748 60.5992 31.4036 59.9689 30.4473C59.3386 29.5064 58.8734 28.4344 58.5732 27.2314C58.2881 26.0129 58.1455 24.7712 58.1455 23.5064V22.5347C58.1455 21.2853 58.2881 20.0591 58.5732 18.856C58.8734 17.653 59.3386 16.5656 59.9689 15.5938C60.5992 14.653 61.4096 13.8895 62.4001 13.3033C63.4056 12.7172 64.6136 12.4242 66.0243 12.4242C66.9998 12.4242 67.9002 12.5861 68.7256 12.91C69.566 13.2339 70.3014 13.6812 70.9317 14.2519C71.547 14.838 72.0347 15.5321 72.3949 16.3342C72.7701 17.1208 72.9877 17.9846 73.0477 18.9255H75.6139C75.5539 17.6452 75.2763 16.4576 74.781 15.3625C74.2858 14.2674 73.618 13.3265 72.7776 12.5398C71.9372 11.7532 70.9392 11.144 69.7836 10.7121C68.6431 10.2648 67.39 10.0411 66.0243 10.0411C64.2535 10.0411 62.7077 10.3882 61.3871 11.0823C60.0665 11.7763 58.9709 12.7018 58.1005 13.8586C57.2151 15.0154 56.5548 16.3496 56.1195 17.8612C55.6843 19.3728 55.4592 20.9306 55.4442 22.5347V23.5064C55.4592 25.126 55.6843 26.6915 56.1195 28.2031C56.5548 29.6992 57.2151 31.018 58.1005 32.1594C58.9859 33.3316 60.089 34.2648 61.4096 34.9589C62.7302 35.653 64.276 36 66.0468 36C67.2924 36 68.478 35.7995 69.6035 35.3985C70.7291 34.982 71.7271 34.4036 72.5975 33.6632C73.4679 32.9383 74.1657 32.0746 74.691 31.072C75.2313 30.0694 75.5389 28.982 75.6139 27.8098H73.0477C72.9727 28.7044 72.7401 29.5141 72.3499 30.2391C71.9597 30.9486 71.4494 31.5578 70.8191 32.0668C70.1738 32.5758 69.4385 32.9692 68.6131 33.2468C67.8027 33.509 66.9473 33.6401 66.0468 33.6401Z" fill="#D2CACA"/>
<path d="M84.4832 10.5039V12.9794H93.1049V33.0617H84.4832V35.5373H104.068V33.0617H95.7837V10.5039H84.4832ZM92.317 3.65553C92.317 4.2108 92.4746 4.68895 92.7897 5.08997C93.1049 5.491 93.6226 5.69152 94.343 5.69152C95.0483 5.69152 95.5661 5.491 95.8962 5.08997C96.2264 4.68895 96.3915 4.2108 96.3915 3.65553C96.3915 3.34704 96.3464 3.0617 96.2564 2.79949C96.1663 2.53728 96.0313 2.31362 95.8512 2.12853C95.7011 1.94344 95.4985 1.80463 95.2434 1.71208C94.9883 1.60411 94.6881 1.55013 94.343 1.55013C93.9978 1.55013 93.6977 1.60411 93.4425 1.71208C93.1874 1.80463 92.9773 1.94344 92.8122 2.12853C92.6321 2.32905 92.5046 2.56041 92.4295 2.82262C92.3545 3.08483 92.317 3.36247 92.317 3.65553Z" fill="#D2CACA"/>
<path d="M110.753 22.7892V23.2751C110.753 24.8946 110.956 26.4679 111.361 27.9949C111.766 29.5219 112.359 30.8715 113.14 32.0437C113.95 33.2314 114.955 34.1877 116.156 34.9126C117.372 35.6375 118.782 36 120.388 36C121.874 36 123.262 35.6915 124.553 35.0746C125.843 34.4422 126.909 33.5321 127.749 32.3445L127.839 35.5373H130.338V0H127.659V13.9049C126.864 12.7018 125.843 11.7609 124.598 11.0823C123.352 10.3882 121.964 10.0411 120.433 10.0411C118.767 10.0411 117.327 10.4036 116.111 11.1285C114.895 11.8535 113.89 12.8175 113.095 14.0206C112.329 15.1774 111.744 16.5193 111.339 18.0463C110.948 19.5578 110.753 21.1388 110.753 22.7892ZM113.455 23.2751V22.7892C113.455 21.5553 113.582 20.329 113.837 19.1105C114.107 17.892 114.528 16.7892 115.098 15.8021C115.683 14.8149 116.449 14.0129 117.394 13.3959C118.355 12.7789 119.533 12.4704 120.928 12.4704C122.504 12.4704 123.877 12.91 125.048 13.7892C126.233 14.653 127.104 15.7943 127.659 17.2134V29.2211C127.074 30.5784 126.173 31.6427 124.958 32.4139C123.742 33.1851 122.384 33.5707 120.883 33.5707C119.503 33.5707 118.34 33.2622 117.394 32.6452C116.464 32.0283 115.698 31.2339 115.098 30.2622C114.528 29.2751 114.107 28.1799 113.837 26.9769C113.582 25.7584 113.455 24.5244 113.455 23.2751Z" fill="#D2CACA"/>
<path d="M149.63 36C151.656 36 153.434 35.5913 154.965 34.7738C156.495 33.9563 157.719 32.8843 158.634 31.5578L156.946 30.2391C156.075 31.3496 155.032 32.1979 153.817 32.7841C152.601 33.3702 151.243 33.6555 149.742 33.6401C148.437 33.6401 147.243 33.3779 146.163 32.8535C145.097 32.3136 144.189 31.5964 143.439 30.7018C142.674 29.8226 142.081 28.8123 141.661 27.671C141.241 26.5296 141 25.2956 140.94 23.9692V23.2057H159.174V21.5167C159.159 19.928 158.934 18.4396 158.499 17.0514C158.064 15.6478 157.418 14.4216 156.563 13.3728C155.708 12.3393 154.657 11.5296 153.411 10.9434C152.166 10.3419 150.74 10.0411 149.134 10.0411C147.604 10.0411 146.178 10.3728 144.857 11.036C143.537 11.6838 142.396 12.5707 141.436 13.6967C140.445 14.838 139.665 16.1877 139.095 17.7455C138.539 19.2879 138.262 20.946 138.262 22.7198V23.7147C138.262 25.3959 138.539 26.9846 139.095 28.4807C139.65 29.9614 140.43 31.2648 141.436 32.3907C142.426 33.5013 143.619 34.3805 145.015 35.0283C146.411 35.6761 147.949 36 149.63 36ZM149.134 12.4242C150.29 12.4242 151.318 12.6555 152.218 13.1183C153.119 13.5656 153.884 14.1671 154.514 14.9229C155.13 15.6787 155.61 16.5578 155.955 17.5604C156.315 18.563 156.495 19.5733 156.495 20.5913V20.8458H141.053C141.218 19.6427 141.526 18.5244 141.976 17.491C142.426 16.4576 142.996 15.563 143.687 14.8072C144.377 14.0668 145.18 13.4884 146.095 13.072C147.011 12.6401 148.024 12.4242 149.134 12.4242Z" fill="#D2CACA"/>
<path d="M180.965 35.5373H187.313V35.144C186.998 34.5116 186.758 33.7558 186.592 32.8766C186.427 31.9974 186.345 30.8869 186.345 29.545V18.8098C186.345 17.3599 186.082 16.0874 185.557 14.9923C185.032 13.8817 184.304 12.964 183.373 12.2391C182.443 11.5141 181.34 10.9666 180.064 10.5964C178.804 10.2262 177.438 10.0411 175.967 10.0411C174.332 10.0411 172.876 10.2571 171.6 10.6889C170.34 11.1054 169.274 11.6761 168.404 12.401C167.518 13.126 166.843 13.9666 166.378 14.9229C165.927 15.8792 165.702 16.8895 165.702 17.9537H171.96C171.96 17.5064 172.02 17.0977 172.14 16.7275C172.276 16.3573 172.478 16.0411 172.748 15.7789C173.048 15.4859 173.439 15.2622 173.919 15.108C174.399 14.9383 174.969 14.8535 175.63 14.8535C176.38 14.8535 177.033 14.9537 177.588 15.1542C178.158 15.3393 178.631 15.6093 179.006 15.964C179.366 16.3033 179.637 16.7121 179.817 17.1902C179.997 17.653 180.087 18.1774 180.087 18.7635V20.2442H176.598C174.797 20.2442 173.198 20.4139 171.803 20.7532C170.422 21.0771 169.259 21.5553 168.314 22.1877C167.263 22.8817 166.475 23.7686 165.95 24.8483C165.425 25.9126 165.162 27.1388 165.162 28.527C165.162 29.6067 165.372 30.6093 165.792 31.5347C166.213 32.4447 166.798 33.2314 167.548 33.8946C168.299 34.5578 169.192 35.0746 170.227 35.4447C171.278 35.8149 172.426 36 173.671 36C174.437 36 175.149 35.9229 175.81 35.7686C176.47 35.6298 177.078 35.4293 177.633 35.1671C178.173 34.9203 178.669 34.6272 179.119 34.2879C179.569 33.9486 179.967 33.5861 180.312 33.2005C180.387 33.6478 180.477 34.072 180.582 34.473C180.687 34.874 180.815 35.2288 180.965 35.5373ZM174.999 31.0257C174.414 31.0257 173.896 30.9563 173.446 30.8175C173.011 30.6632 172.643 30.4627 172.343 30.2159C172.043 29.9537 171.81 29.6375 171.645 29.2674C171.495 28.8817 171.42 28.4653 171.42 28.018C171.42 27.4473 171.525 26.9229 171.735 26.4447C171.945 25.9512 172.268 25.527 172.703 25.1722C173.138 24.8329 173.701 24.5707 174.392 24.3856C175.082 24.1851 175.915 24.0848 176.89 24.0848H180.087V28.3882C179.907 28.7121 179.659 29.036 179.344 29.3599C179.029 29.6684 178.654 29.946 178.218 30.1928C177.783 30.4396 177.295 30.6401 176.755 30.7943C176.215 30.9486 175.63 31.0257 174.999 31.0257Z" fill="#D2CACA"/>
<path d="M195.102 10.5039V15.7558H202.035V30.3085H195.102V35.5373H214.956V30.3085H208.36V10.5039H195.102ZM201.585 4.09512C201.585 4.58869 201.667 5.05141 201.832 5.48329C202.012 5.89974 202.26 6.2545 202.575 6.54756C202.89 6.85604 203.265 7.09512 203.701 7.26478C204.151 7.43445 204.646 7.51928 205.186 7.51928C206.297 7.51928 207.175 7.20308 207.82 6.57069C208.48 5.92288 208.811 5.09769 208.811 4.09512C208.811 3.09255 208.48 2.27506 207.82 1.64267C207.175 0.994859 206.297 0.670951 205.186 0.670951C204.646 0.670951 204.151 0.755784 203.701 0.92545C203.265 1.09512 202.89 1.32648 202.575 1.61954C202.26 1.92802 202.012 2.2982 201.832 2.73008C201.667 3.14653 201.585 3.60154 201.585 4.09512Z" fill="#D2CACA"/>
</svg>
